<?xml version="1.0" encoding="utf-8" ?>
<svg xmlns="http://www.w3.org/2000/svg" xmlns:xlink="http://www.w3.org/1999/xlink" width="24" height="24" viewBox="0 0 24 24">
	<defs>
		<clipPath id="clipPath9372354692">
			<path d="M0 0L24 0L24 24L0 24L0 0Z" fill-rule="nonzero" transform="matrix(1 0 0 1 0 0)"/>
		</clipPath>
	</defs>
	<g clip-path="url(#clipPath9372354692)">
		<defs>
			<clipPath id="clipPath2181936938">
				<path d="M0 0L24 0L24 24L0 24L0 0Z" fill-rule="nonzero" transform="matrix(1 0 0 1 -0 -0)"/>
			</clipPath>
		</defs>
		<g clip-path="url(#clipPath2181936938)">
			<path d="M18 2L17 2L17 0L15 0L15 2L5 2L5 0L3 0L3 2L2 2C0.9 2 0 2.9 0 4L0 20C0 21.1 0.9 22 2 22L18 22C19.1 22 20 21.1 20 20L20 4C20 2.9 19.1 2 18 2ZM18 20L2 20L2 7L18 7L18 20Z" fill-rule="nonzero" transform="matrix(1 0 0 1 2 1)" fill="rgb(1, 32, 71)"/>
		</g>
	</g>
</svg>
