<?xml version="1.0" encoding="utf-8" ?>
<svg xmlns="http://www.w3.org/2000/svg" xmlns:xlink="http://www.w3.org/1999/xlink" width="24" height="24" viewBox="0 0 24 24">
	<defs>
		<clipPath id="clipPath7808314987">
			<path d="M0 0L24 0L24 24L0 24L0 0Z" fill-rule="nonzero" transform="matrix(1 0 0 1 0 0)"/>
		</clipPath>
	</defs>
	<g clip-path="url(#clipPath7808314987)">
		<defs>
			<clipPath id="clipPath5896266713">
				<path d="M0 0L24 0L24 24L0 24L0 0Z" fill-rule="nonzero" transform="matrix(1 0 0 1 -0 -0)"/>
			</clipPath>
		</defs>
		<g clip-path="url(#clipPath5896266713)">
			<path d="M8 19.5C9.1 19.5 10 18.6 10 17.5L6 17.5C6 18.0523 6.19526 18.5237 6.58579 18.9142C6.97631 19.3047 7.44772 19.5 8 19.5ZM14 13.5L14 8.5C14 5.43 12.36 2.86 9.5 2.18L9.5 1.5C9.5 0.67 8.83 0 8 0C7.17 0 6.5 0.67 6.5 1.5L6.5 2.18C3.63 2.86 2 5.42 2 8.5L2 13.5L0 15.5L0 16.5L16 16.5L16 15.5L14 13.5Z" fill-rule="nonzero" transform="matrix(1 0 0 1 4 2.5)" fill="rgb(35, 25, 23)"/>
		</g>
	</g>
</svg>
