<?xml version="1.0" encoding="utf-8" ?>
<svg xmlns="http://www.w3.org/2000/svg" xmlns:xlink="http://www.w3.org/1999/xlink" width="24" height="24" viewBox="0 0 24 24">
	<defs>
		<clipPath id="clipPath9420581925">
			<path d="M0 0L24 0L24 24L0 24L0 0Z" fill-rule="nonzero" transform="matrix(1 0 0 1 -0 -0)"/>
		</clipPath>
	</defs>
	<g clip-path="url(#clipPath9420581925)">
		<defs>
			<clipPath id="clipPath5769913397">
				<path d="M0 0L20 0L20 20L0 20L0 0Z" fill-rule="nonzero" transform="matrix(1 0 0 1 2 2)"/>
			</clipPath>
		</defs>
		<g clip-path="url(#clipPath5769913397)">
			<path d="M2.91667 -1Q3.71285 -1 4.44152 -0.691798Q5.14457 -0.394431 5.68617 0.147165Q6.22776 0.688762 6.52513 1.39182Q6.83333 2.12049 6.83333 2.91667Q6.83333 3.71285 6.52513 4.44152Q6.22776 5.14457 5.68617 5.68617Q5.14457 6.22776 4.44152 6.52513Q3.71285 6.83333 2.91667 6.83333Q2.12049 6.83333 1.39182 6.52513Q0.688761 6.22776 0.147165 5.68617Q-0.394432 5.14457 -0.691799 4.44152Q-1 3.71285 -1 2.91667Q-1 2.12049 -0.691798 1.39182Q-0.394431 0.688761 0.147165 0.147165Q0.688762 -0.394432 1.39182 -0.691799Q2.12049 -1 2.91667 -1L2.91667 -1ZM2.91667 1Q2.12276 1 1.56138 1.56138Q1 2.12276 1 2.91667Q1 3.71058 1.56138 4.27195Q2.12276 4.83333 2.91667 4.83333Q3.71058 4.83333 4.27195 4.27195Q4.83333 3.71058 4.83333 2.91667Q4.83333 2.12276 4.27195 1.56138Q3.71058 1 2.91667 1L2.91667 1Z" fill-rule="nonzero" transform="matrix(1 0 0 1 9.08333 3.66667)" fill="rgb(51, 51, 51)"/>
			<path d="M8.5 0C8.5 -0.55228 8.05228 -1 7.5 -1Q5.79236 -1 4.22875 -0.412134Q2.70909 0.159207 1.53234 1.2052Q0.34279 2.26258 -0.313596 3.64202Q-1 5.08454 -1 6.66667C-1 7.21895 -0.55228 7.66667 0 7.66667C0.55228 7.66667 1 7.21895 1 6.66667Q1 5.53612 1.49237 4.50136Q1.97455 3.48803 2.86107 2.70002Q3.76038 1.90064 4.93258 1.45993Q6.1559 1 7.5 1C8.05228 1 8.5 0.55228 8.5 0Z" fill-rule="evenodd" transform="matrix(1 0 0 1 3.66667 12.4167)" fill="rgb(51, 51, 51)"/>
			<path d="M3.75 -1Q4.71572 -1 5.59922 -0.626311Q6.45182 -0.26569 7.10876 0.391243Q7.76569 1.04818 8.12631 1.90078Q8.5 2.78428 8.5 3.75Q8.5 4.71572 8.12631 5.59922Q7.76569 6.45182 7.10876 7.10876Q6.45182 7.76569 5.59922 8.12631Q4.71572 8.5 3.75 8.5Q2.78428 8.5 1.90078 8.12631Q1.04818 7.76569 0.391243 7.10876Q-0.26569 6.45182 -0.626311 5.59922Q-1 4.71572 -1 3.75Q-1 2.78428 -0.626311 1.90078Q-0.26569 1.04818 0.391243 0.391243Q1.04818 -0.26569 1.90078 -0.626311Q2.78428 -1 3.75 -1ZM3.75 1Q3.18985 1 2.67988 1.2157Q2.18655 1.42436 1.80546 1.80546Q1.42436 2.18655 1.2157 2.67988Q1 3.18985 1 3.75Q1 4.31015 1.2157 4.82012Q1.42436 5.31345 1.80546 5.69454Q2.18655 6.07564 2.67988 6.2843Q3.18985 6.5 3.75 6.5Q4.31015 6.5 4.82012 6.2843Q5.31345 6.07564 5.69454 5.69454Q6.07564 5.31345 6.2843 4.82012Q6.5 4.31015 6.5 3.75Q6.5 3.18985 6.2843 2.67988Q6.07564 2.18655 5.69454 1.80546Q5.31345 1.42436 4.82012 1.2157Q4.31015 1 3.75 1Z" fill-rule="nonzero" transform="matrix(1 0 0 1 12.4167 12.4167)" fill="rgb(51, 51, 51)"/>
			<path d="M0 -1C-0.55228 -1 -1 -0.55228 -1 0L-1 1.66667Q-1 1.76516 -0.980785 1.86176Q-0.96157 1.95836 -0.923879 2.04935Q-0.886188 2.14034 -0.83147 2.22224Q-0.776751 2.30413 -0.707107 2.37377Q-0.637463 2.44342 -0.55557 2.49814Q-0.473678 2.55285 -0.382683 2.59055Q-0.291689 2.62824 -0.19509 2.64745Q-0.0984914 2.66667 0 2.66667L1.66667 2.66667C2.21895 2.66667 2.66667 2.21895 2.66667 1.66667C2.66667 1.11439 2.21895 0.666667 1.66667 0.666667L1 0.666667L1 0C1 -0.55228 0.55228 -1 0 -1Z" fill-rule="evenodd" transform="matrix(1 0 0 1 15.75 14.9167)" fill="rgb(51, 51, 51)"/>
		</g>
	</g>
</svg>
