<?xml version="1.0" encoding="utf-8" ?>
<svg xmlns="http://www.w3.org/2000/svg" xmlns:xlink="http://www.w3.org/1999/xlink" width="286" height="32" viewBox="0 0 286 32">
	<defs>
		<clipPath id="clipPath6386822607">
			<path d="M0 0L32 0L32 28.4444L0 28.4444L0 0Z" fill-rule="nonzero" transform="matrix(1 0 0 1 0 1.19209e-07)"/>
		</clipPath>
	</defs>
	<g clip-path="url(#clipPath6386822607)">
		<defs>
			<clipPath id="clipPath9059407596">
				<path d="M0 0L32 0L32 28.4444L0 28.4444L0 0Z" fill-rule="nonzero" transform="matrix(1 0 0 1 0 1.19209e-07)"/>
			</clipPath>
		</defs>
		<g clip-path="url(#clipPath9059407596)">
			<path d="M26.1167 9.84198C26.1167 9.84198 26.5389 11.679 26.6333 12.0642L24.7778 12.0642C24.9611 11.6247 25.6667 9.91605 25.6667 9.91605C25.6556 9.93086 25.85 9.46667 25.9611 9.18025L26.1167 9.84198ZM32 2.37037L32 19.7531C32 21.0617 30.8056 22.1235 29.3333 22.1235L2.66667 22.1235C1.19444 22.1235 0 21.0617 0 19.7531L0 2.37037C0 1.06173 1.19444 0 2.66667 0L29.3333 0C30.8056 0 32 1.06173 32 2.37037ZM8.47222 14.7753L11.9833 7.11111L9.62222 7.11111L7.43889 12.3457L7.2 11.284L6.42222 7.75803C6.29444 7.26914 5.9 7.13086 5.41111 7.11111L1.81667 7.11111L1.77778 7.2642C2.65556 7.46173 3.43889 7.74815 4.12222 8.10864L6.11111 14.7753L8.47222 14.7753ZM13.7167 14.7852L15.1167 7.11111L12.8833 7.11111L11.4889 14.7852L13.7167 14.7852ZM21.4889 12.2765C21.5 11.4025 20.9 10.7358 19.6167 10.1877C18.8333 9.83704 18.3556 9.6 18.3556 9.23951C18.3667 8.91358 18.7611 8.57778 19.6389 8.57778C20.3667 8.56296 20.9 8.71605 21.3 8.86914L21.5 8.95309L21.8056 7.29383C21.3667 7.14074 20.6667 6.9679 19.8056 6.9679C17.6 6.9679 16.05 8.01482 16.0389 9.50617C16.0222 10.6074 17.15 11.2198 17.9944 11.5901C18.8556 11.9654 19.15 12.2123 19.15 12.5432C19.1389 13.0568 18.45 13.2938 17.8111 13.2938C16.9222 13.2938 16.4444 13.1704 15.7167 12.884L15.4222 12.7605L15.1111 14.484C15.6333 14.6963 16.6 14.884 17.6 14.8938C19.9444 14.8988 21.4722 13.8667 21.4889 12.2765ZM29.3333 14.7852L27.5333 7.11111L25.8056 7.11111C25.2722 7.11111 24.8667 7.24938 24.6389 7.74815L21.3222 14.7852L23.6667 14.7852C23.6667 14.7852 24.05 13.837 24.1333 13.6346L27 13.6346C27.0667 13.9062 27.2667 14.7852 27.2667 14.7852L29.3333 14.7852Z" fill-rule="nonzero" transform="matrix(1 0 0 1 0 3.16048)" fill="rgb(23, 43, 133)"/>
		</g>
	</g>
	<defs>
		<clipPath id="clipPath1742256598">
			<path d="M0 0L32 0L32 28.4444L0 28.4444L0 0Z" fill-rule="nonzero" transform="matrix(1 0 0 1 40 1.19209e-07)"/>
		</clipPath>
	</defs>
	<g clip-path="url(#clipPath1742256598)">
		<defs>
			<clipPath id="clipPath6166875377">
				<path d="M0 0L32 0L32 28.4444L0 28.4444L0 0Z" fill-rule="nonzero" transform="matrix(1 0 0 1 40 1.19209e-07)"/>
			</clipPath>
		</defs>
		<g clip-path="url(#clipPath6166875377)">
			<path d="M26.8278 18.6321C26.8278 18.9679 26.5722 19.2099 26.2056 19.2099C25.8278 19.2099 25.5833 18.9531 25.5833 18.6321C25.5833 18.3111 25.8278 18.0543 26.2056 18.0543C26.5722 18.0543 26.8278 18.3111 26.8278 18.6321ZM9.56111 18.0543C9.16667 18.0543 8.93889 18.3111 8.93889 18.6321C8.93889 18.9531 9.16667 19.2099 9.56111 19.2099C9.92222 19.2099 10.1667 18.9679 10.1667 18.6321C10.1611 18.3111 9.92222 18.0543 9.56111 18.0543ZM16.0889 18.0395C15.7889 18.0395 15.6056 18.2123 15.5611 18.4691L16.6222 18.4691C16.5722 18.1877 16.3778 18.0395 16.0889 18.0395ZM22.0778 18.0543C21.7 18.0543 21.4722 18.3111 21.4722 18.6321C21.4722 18.9531 21.7 19.2099 22.0778 19.2099C22.4556 19.2099 22.7 18.9679 22.7 18.6321C22.7 18.3111 22.4556 18.0543 22.0778 18.0543ZM27.9611 19.3432C27.9611 19.358 27.9778 19.3679 27.9778 19.3975C27.9778 19.4123 27.9611 19.4222 27.9611 19.4519C27.9444 19.4667 27.9444 19.4765 27.9333 19.4914C27.9167 19.5062 27.9056 19.516 27.8722 19.516C27.8556 19.5309 27.8444 19.5309 27.8111 19.5309C27.7944 19.5309 27.7833 19.5309 27.75 19.516C27.7333 19.516 27.7222 19.5012 27.7056 19.4914C27.6889 19.4765 27.6778 19.4667 27.6778 19.4519C27.6611 19.4272 27.6611 19.4123 27.6611 19.3975C27.6611 19.3728 27.6611 19.358 27.6778 19.3432C27.6778 19.3185 27.6944 19.3037 27.7056 19.2889C27.7222 19.2741 27.7333 19.2741 27.75 19.2642C27.7778 19.2494 27.7944 19.2494 27.8111 19.2494C27.8389 19.2494 27.8556 19.2494 27.8722 19.2642C27.9 19.279 27.9167 19.279 27.9333 19.2889C27.95 19.2988 27.9444 19.3185 27.9611 19.3432ZM27.8389 19.4123C27.8667 19.4123 27.8667 19.3975 27.8833 19.3975C27.9 19.3827 27.9 19.3728 27.9 19.358C27.9 19.3432 27.9 19.3333 27.8833 19.3185C27.8667 19.3185 27.8556 19.3037 27.8222 19.3037L27.7333 19.3037L27.7333 19.4765L27.7778 19.4765L27.7778 19.4074L27.7944 19.4074L27.8556 19.4765L27.9 19.4765L27.8389 19.4123ZM32 2.37037L32 19.7531C32 21.0617 30.8056 22.1235 29.3333 22.1235L2.66667 22.1235C1.19444 22.1235 0 21.0617 0 19.7531L0 2.37037C0 1.06173 1.19444 0 2.66667 0L29.3333 0C30.8056 0 32 1.06173 32 2.37037ZM3.55556 9.2642C3.55556 13.042 7.00556 16.1037 11.25 16.1037C12.7611 16.1037 14.2444 15.6988 15.5 14.963C11.45 12.0346 11.4778 6.50864 15.5 3.58025C14.2444 2.83951 12.7611 2.43951 11.25 2.43951C7.00556 2.43457 3.55556 5.50124 3.55556 9.2642ZM16 3.8963C19.9 6.62716 19.9167 11.921 16 14.637C12.0833 11.9259 12.1 6.62716 16 3.8963ZM8.09444 18.4049C8.09444 17.9753 7.77778 17.6938 7.27778 17.679C7.02222 17.679 6.75 17.7481 6.56667 18C6.43333 17.7975 6.20556 17.679 5.88889 17.679C5.67778 17.679 5.46667 17.7481 5.3 17.9457L5.3 17.7284L4.84444 17.7284L4.84444 19.5407L5.3 19.5407C5.3 18.6074 5.16111 18.0494 5.8 18.0494C6.36667 18.0494 6.25556 18.5531 6.25556 19.5407L6.69444 19.5407C6.69444 18.637 6.55556 18.0494 7.19444 18.0494C7.76111 18.0494 7.65 18.5432 7.65 19.5407L8.10556 19.5407L8.10556 18.4049L8.09444 18.4049ZM10.5889 17.7284L10.15 17.7284L10.15 17.9457C10 17.7827 9.78889 17.679 9.5 17.679C8.92778 17.679 8.48889 18.084 8.48889 18.6321C8.48889 19.1852 8.92778 19.5852 9.5 19.5852C9.78889 19.5852 10 19.4914 10.15 19.3185L10.15 19.5457L10.5889 19.5457L10.5889 17.7284ZM12.8389 18.9926C12.8389 18.2519 11.5667 18.5877 11.5667 18.242C11.5667 17.9605 12.2278 18.0049 12.5944 18.1877L12.7778 17.8667C12.2556 17.5654 11.1 17.5704 11.1 18.2716C11.1 18.9778 12.3722 18.6815 12.3722 19.0123C12.3722 19.3235 11.6222 19.2988 11.2222 19.0519L11.0278 19.363C11.65 19.7383 12.8389 19.6593 12.8389 18.9926ZM14.8056 19.4519L14.6833 19.1161C14.4722 19.2198 14.0056 19.3333 14.0056 18.9136L14.0056 18.0938L14.7333 18.0938L14.7333 17.7284L14.0056 17.7284L14.0056 17.1753L13.55 17.1753L13.55 17.7284L13.1278 17.7284L13.1278 18.0889L13.55 18.0889L13.55 18.9136C13.55 19.7827 14.5111 19.6247 14.8056 19.4519ZM15.5444 18.7901L17.0722 18.7901C17.0722 17.9901 16.6611 17.6741 16.1056 17.6741C15.5167 17.6741 15.0944 18.0642 15.0944 18.6272C15.0944 19.6395 16.35 19.8074 16.9722 19.3284L16.7611 19.0321C16.3278 19.3481 15.6722 19.3185 15.5444 18.7901ZM18.8278 17.7284C18.5722 17.6296 18.1833 17.6395 17.9833 17.9457L17.9833 17.7284L17.5278 17.7284L17.5278 19.5407L17.9833 19.5407L17.9833 18.5185C17.9833 17.9457 18.5111 18.0198 18.6944 18.1037L18.8278 17.7284ZM19.4167 18.6321C19.4167 18.0691 20.0611 17.8864 20.5667 18.2173L20.7778 17.8963C20.1333 17.4469 18.9611 17.6938 18.9611 18.637C18.9611 19.6148 20.2056 19.8123 20.7778 19.3778L20.5667 19.0568C20.0556 19.3778 19.4167 19.1852 19.4167 18.6321ZM23.1222 17.7284L22.6667 17.7284L22.6667 17.9457C22.2056 17.4025 21.0056 17.7086 21.0056 18.6321C21.0056 19.5802 22.25 19.8519 22.6667 19.3185L22.6667 19.5457L23.1222 19.5457L23.1222 17.7284ZM24.9944 17.7284C24.8611 17.6691 24.3833 17.5852 24.15 17.9457L24.15 17.7284L23.7111 17.7284L23.7111 19.5407L24.15 19.5407L24.15 18.5185C24.15 17.9753 24.65 18.0099 24.8611 18.1037L24.9944 17.7284ZM27.2333 16.9926L26.7944 16.9926L26.7944 17.9457C26.3389 17.4074 25.1333 17.6938 25.1333 18.6321C25.1333 19.5901 26.3833 19.8469 26.7944 19.3185L26.7944 19.5457L27.2333 19.5457L27.2333 16.9926ZM27.6556 13.284L27.6556 13.5111L27.7 13.5111L27.7 13.284L27.8056 13.284L27.8056 13.2444L27.55 13.2444L27.55 13.284L27.6556 13.284ZM28.0222 19.3975C28.0222 19.3728 28.0222 19.3432 28.0056 19.3185C27.9889 19.3037 27.9778 19.279 27.9611 19.2642C27.9444 19.2494 27.9167 19.2395 27.9 19.2247C27.8722 19.2247 27.8389 19.2099 27.8111 19.2099C27.7944 19.2099 27.7667 19.2247 27.7333 19.2247C27.7056 19.2395 27.6889 19.2494 27.6722 19.2642C27.6444 19.279 27.6278 19.3037 27.6278 19.3185C27.6111 19.3432 27.6111 19.3728 27.6111 19.3975C27.6111 19.4123 27.6111 19.437 27.6278 19.4667C27.6278 19.4815 27.6444 19.5062 27.6722 19.521C27.6889 19.5358 27.7 19.5457 27.7333 19.5605C27.7611 19.5753 27.7944 19.5753 27.8111 19.5753C27.8389 19.5753 27.8722 19.5753 27.9 19.5605C27.9167 19.5457 27.9444 19.5358 27.9611 19.521C27.9778 19.5062 27.9889 19.4815 28.0056 19.4667C28.0222 19.437 28.0222 19.4123 28.0222 19.3975ZM28.2 13.2395L28.1222 13.2395L28.0333 13.4123L27.9444 13.2395L27.8667 13.2395L27.8667 13.5062L27.9111 13.5062L27.9111 13.3037L28 13.4765L28.0611 13.4765L28.1389 13.3037L28.1389 13.5062L28.2 13.5062L28.2 13.2395ZM28.4444 9.2642C28.4444 5.50123 24.9944 2.43457 20.75 2.43457C19.2389 2.43457 17.7556 2.8395 16.5 3.57531C20.5056 6.5037 20.5667 12.0444 16.5 14.958C17.7556 15.6988 19.25 16.0988 20.75 16.0988C24.9944 16.1037 28.4444 13.042 28.4444 9.2642Z" fill-rule="nonzero" transform="matrix(1 0 0 1 40 3.20985)" fill="rgb(235, 0, 27)"/>
		</g>
	</g>
	<defs>
		<clipPath id="clipPath7780530603">
			<path d="M0 0L32 0L32 28.4444L0 28.4444L0 0Z" fill-rule="nonzero" transform="matrix(1 0 0 1 80 1.19209e-07)"/>
		</clipPath>
	</defs>
	<g clip-path="url(#clipPath7780530603)">
		<defs>
			<clipPath id="clipPath6284491133">
				<path d="M0 0L32 0L32 28.4444L0 28.4444L0 0Z" fill-rule="nonzero" transform="matrix(1 0 0 1 80 1.19209e-07)"/>
			</clipPath>
		</defs>
		<g clip-path="url(#clipPath6284491133)">
			<path d="M18.0722 6.70617C18.0722 5.8963 17.2889 5.79753 16.55 5.79753L14.3778 5.78272L14.3778 9.20494L15.2889 9.20494L15.2889 7.96543L16.2889 7.96543C17.3111 7.96543 17.0944 8.47407 17.1111 9.20494L18.0333 9.20494L18.0333 8.53827C18.0333 8.08395 17.95 7.79259 17.4222 7.62963C17.8333 7.48148 18.0778 7.10124 18.0722 6.70617ZM16.4389 7.2642L15.2889 7.2642L15.2889 6.50864L16.4556 6.50864C16.7389 6.50864 17.05 6.55802 17.05 6.87407C17.05 7.2 16.7556 7.2642 16.4389 7.2642ZM15.5111 11.684L12.5833 11.684L11.4167 12.8099L10.2778 11.684L6.58333 11.684L6.57778 15.1062L10.2111 15.1062L11.3944 13.9704L12.5278 15.1062L14.3167 15.1062L14.3222 13.9556C15.3722 13.9556 17.0611 14.1827 17.0611 12.8049C17.0611 11.9506 16.3778 11.684 15.5111 11.684ZM9.74444 14.3852L7.48889 14.3852L7.48889 13.7037L9.50555 13.7037L9.50555 13.0074L7.48889 13.0074L7.48889 12.3901L9.80555 12.3901L10.8 13.3877L9.74444 14.3852ZM13.4 14.7901L11.9944 13.4025L13.4 12.0494L13.4 14.7901ZM15.5 13.2593L14.3222 13.2593L14.3222 12.3901L15.5167 12.3901C15.8278 12.3901 16.0833 12.5037 16.0833 12.8049C16.0833 13.121 15.8278 13.2593 15.5 13.2593ZM13.7444 6.50864L13.7444 5.78766L10.6611 5.78766L10.6611 9.20988L13.7444 9.20988L13.7444 8.50371L11.5833 8.50371L11.5833 7.82222L13.6833 7.82222L13.6833 7.12593L11.5833 7.12593L11.5833 6.50864L13.7444 6.50864ZM32 11.0321L32.0111 11.0321L32 11.0321ZM21.2 12.6074C21.2 11.7975 20.4167 11.6839 19.6944 11.6839L17.5056 11.6839L17.5 15.1062L18.4222 15.1062L18.4278 13.8568L19.4056 13.8568C20.0167 13.8568 20.2278 13.9556 20.2278 14.5383L20.2222 15.1062L21.1444 15.1062L21.15 14.4247C21.15 13.9852 21.05 13.679 20.5389 13.516C20.9667 13.363 21.1944 12.9827 21.2 12.6074ZM19.5778 13.1605L18.4278 13.1605L18.4278 12.3901L19.5944 12.3901C19.8778 12.3901 20.1889 12.4395 20.1889 12.7556C20.1889 13.0963 19.8889 13.1605 19.5778 13.1605ZM9.97777 9.20988L9.97777 5.78765L8.44444 5.78765L7.35 8.10864L6.14444 5.78765L4.63889 5.78765L4.63889 9.0321L3.07778 5.78765L1.71666 5.78765L0.066664 9.20988L1.06111 9.20988L1.41666 8.45432L3.33333 8.45432L3.68889 9.20988L5.56666 9.20988L5.56666 6.53333L6.9 9.20988L7.71111 9.20988L9.04444 6.53333L9.04444 9.20988L9.97777 9.20988ZM1.74444 7.74321L2.36666 6.38025L3.00555 7.74321L1.74444 7.74321ZM28.2667 15.5901L28.2667 15.3679C27.6667 15.6444 28.05 15.5901 19.5611 15.5901C19.5611 14.3457 19.5667 14.4099 19.5611 14.3457C19.4667 14.3407 19.3833 14.3407 19.0389 14.3407C19.0389 15.2247 19.0333 14.6765 19.0333 15.5901L16.8333 15.5901C16.8333 14.9926 16.8389 14.8346 16.8389 14.1481C16.2833 14.4444 15.5722 14.4642 14.9333 14.4543C14.9333 15.1802 14.9278 14.8642 14.9278 15.5901L12.2111 15.5901C11.9278 15.3086 12.0611 15.437 11.3556 14.7309C11.1778 14.9037 10.6444 15.4173 10.4611 15.5901L5.90555 15.5901L5.90555 11.0321L10.5222 11.0321C10.8 11.3086 10.6778 11.1852 11.3833 11.8815C11.5611 11.7086 12.0611 11.2198 12.2556 11.0321L15.4778 11.0321C16.0222 11.0321 16.4778 11.1259 16.8278 11.3086L16.8278 11.0321C19.8444 11.0321 20.4 10.963 21.0333 11.2839L21.0333 11.0321L25.3778 11.0321L25.3778 11.2889C26.0111 10.9481 26.4667 11.0321 28.9833 11.0321L28.9833 11.279C29.5556 10.9877 29.9056 11.0222 32 11.0321L32 2.37037C32 1.06173 30.8056 0 29.3333 0L2.66667 0C1.19444 0 0 1.06173 0 2.37037L0 7.79259C0.522222 6.71111 1.09444 5.52099 1.28333 5.13086L3.48889 5.13086C3.72778 5.62963 3.57778 5.31358 3.98889 6.17284L3.98889 5.13086L6.54444 5.13086C6.70556 5.43704 7.16111 6.31605 7.31667 6.61235C7.63889 5.94074 7.87778 5.4321 8.01667 5.13086L13.7389 5.13086L14.3833 5.13086C16.8111 5.14074 17.3611 5.09136 17.9611 5.39259L17.9611 5.13086L20.1778 5.13086L20.1778 5.59012C20.6 5.28889 21.1722 5.13086 21.8833 5.13086L23.4167 5.13086C23.4167 5.15556 23.5222 5.14568 23.5444 5.14568L25.3444 5.14568C25.5778 5.62963 25.4889 5.44198 25.8333 6.16296L25.8333 5.14568L28.2389 5.14568C28.5111 5.54074 28.1833 5.05679 28.8611 6.05432L28.8611 5.14568L31.0778 5.14568L31.0778 9.68889L28.7667 9.68889C28.4667 9.24444 28.6889 9.58025 28.0333 8.60741L28.0333 9.68889L25.1 9.68889C24.7444 8.95802 25.0944 9.67407 24.7333 8.93333L23.6778 8.93333C23.4444 9.42716 23.5556 9.19012 23.3222 9.68889L21.8333 9.68889C21.15 9.68889 20.5944 9.54074 20.1833 9.24938L20.1833 9.68889L16.4889 9.68889C16.4722 9.00247 16.4833 8.4642 16.4833 8.4642C16.3833 8.44938 16.2944 8.45432 15.9389 8.45432L15.9389 9.69383L8.41111 9.69383L8.41111 9.13087C8.27222 9.40741 8.26111 9.42222 8.12777 9.69383L6.48889 9.69383C6.26666 9.25432 6.32777 9.37778 6.20555 9.13087L6.20555 9.69383L3.26666 9.69383C3.03333 9.19506 3.14444 9.4321 2.91111 8.93827L1.84444 8.93827C1.61111 9.4321 1.72222 9.19506 1.48889 9.69383L0.0111084 9.69383L0.0111084 19.7531C0.0111084 21.0617 1.20555 22.1235 2.67778 22.1235L29.35 22.1235C30.8222 22.1235 32.0167 21.0617 32.0167 19.7531L32.0167 15.2889C31.3111 15.6988 30.2 15.5901 28.2667 15.5901ZM30.2833 12.4049L31.9556 12.4049L31.9556 11.684L30.1278 11.684C29.4167 11.684 28.8056 12.0099 28.8056 12.7062C28.8056 14.3358 31.1778 13.3383 31.1778 14.0593C31.1778 14.3111 30.9389 14.3753 30.7111 14.3753L28.9333 14.3753L28.9278 15.1062L30.7056 15.1062C31.1722 15.1062 31.6833 15.0173 31.9556 14.6667L31.9556 13.3926C31.3722 12.7111 29.7722 13.3284 29.7722 12.7259C29.7722 12.4395 30.0278 12.4049 30.2833 12.4049ZM27.1167 14.3704L25.3278 14.3704L25.3222 15.1012L27.1111 15.1012C27.9333 15.1012 28.5667 14.8247 28.5667 14.0148C28.5667 12.3753 26.1833 13.4617 26.1833 12.716C26.1833 12.4395 26.4556 12.4 26.6944 12.4L28.3833 12.4L28.3833 11.679L26.5389 11.679C25.8278 11.679 25.2333 12.0049 25.2333 12.7012C25.2333 14.3309 27.6056 13.3185 27.6056 14.0543C27.6 14.321 27.3444 14.3704 27.1167 14.3704ZM24.7722 12.3901L24.7722 11.684L21.7056 11.684L21.7 15.1062L24.7667 15.1062L24.7722 14.4L22.6278 14.3852L22.6278 13.7037L24.7333 13.7037L24.7333 13.0074L22.6333 13.0074L22.6333 12.3901L24.7722 12.3901ZM21.6444 7.05185C21.6278 7.06173 21.5667 7.16049 21.5667 7.42716C21.5667 7.72346 21.6167 7.80741 21.6278 7.81728C21.6389 7.82222 21.6889 7.84197 21.8167 7.84197L22.2222 7.00741C22.1611 7.00741 22.1056 7.00247 22.05 7.00247C21.7389 7.00247 21.6611 7.03704 21.6444 7.05185ZM22.7722 6.53333L22.7778 6.53333L22.7722 6.53333ZM21.8778 5.78272C20.5722 5.78272 19.9889 6.37531 19.9889 7.52593C19.9889 8.62222 20.5556 9.20494 21.8222 9.20494L22.8889 9.20494L23.2444 8.44938L25.15 8.44938L25.5167 9.20494L27.3889 9.20494L27.3889 6.64198L29.1222 9.20494L30.4333 9.20494L30.4333 5.79753L29.4944 5.79753L29.4944 8.17284L27.8778 5.79753L26.4722 5.79753L26.4722 9.02716L24.9222 5.79753L23.5444 5.79753L22.2389 8.48889L21.8278 8.48889C21.0889 8.48889 20.9333 8.08889 20.9333 7.50617C20.9333 6.33086 21.8056 6.51852 22.7722 6.53333L22.7722 5.78272L21.8778 5.78272ZM24.2167 6.38025L24.8389 7.74321L23.5722 7.74321L24.2167 6.38025ZM18.6 5.78765L18.6 9.20988L19.5389 9.20988L19.5389 5.78765L18.6 5.78765Z" fill-rule="nonzero" transform="matrix(1 0 0 1 79.9889 3.16048)" fill="rgb(38, 113, 185)"/>
		</g>
	</g>
</svg>
