<?xml version="1.0" encoding="utf-8" ?>
<svg xmlns="http://www.w3.org/2000/svg" xmlns:xlink="http://www.w3.org/1999/xlink" width="13.0566" height="10.2266" viewBox="0 0 13.0566 10.2266">
	<path d="M2.67285 2.91016Q3.39746 2.91016 3.92383 3.4502Q4.4502 3.99023 4.4502 4.74219Q4.4502 5.49414 3.93066 6.02393Q3.41113 6.55371 2.67285 6.55371Q1.92773 6.55371 1.39795 6.02393Q0.868164 5.49414 0.868164 4.74219Q0.868164 3.99023 1.40479 3.4502Q1.94141 2.91016 2.67285 2.91016ZM2.67285 5.58984Q3.03516 5.58984 3.271 5.34717Q3.50684 5.10449 3.50684 4.74219Q3.50684 4.38672 3.271 4.12695Q3.03516 3.86719 2.67285 3.86719Q2.31055 3.86719 2.06445 4.12695Q1.81836 4.38672 1.81836 4.74219Q1.81836 5.09766 2.06787 5.34375Q2.31738 5.58984 2.67285 5.58984Z" fill-rule="nonzero" transform="matrix(1 0 0 1 -0.868164 -2.91016)" fill="rgb(1, 32, 71)"/>
	<path d="M13.9248 9.75977Q13.7744 11.3525 12.749 12.2446Q11.7236 13.1367 10.0215 13.1367Q8.83203 13.1367 7.92627 12.5728Q7.02051 12.0088 6.52832 10.9697Q6.03613 9.93066 6.01562 8.55664L6.01562 7.62695Q6.01562 6.21875 6.51465 5.14551Q7.01367 4.07227 7.94678 3.49121Q8.87988 2.91016 10.1035 2.91016Q11.751 2.91016 12.7559 3.80566Q13.7607 4.70117 13.9248 6.33496L12.2021 6.33496Q12.0791 5.26172 11.5767 4.78662Q11.0742 4.31152 10.1035 4.31152Q8.97559 4.31152 8.37061 5.13525Q7.76562 5.95898 7.75195 7.55176L7.75195 8.43359Q7.75195 10.0469 8.32959 10.8945Q8.90723 11.7422 10.0215 11.7422Q11.04 11.7422 11.5527 11.2842Q12.0654 10.8262 12.2021 9.75977L13.9248 9.75977Z" fill-rule="nonzero" transform="matrix(1 0 0 1 -0.868164 -2.91016)" fill="rgb(1, 32, 71)"/>
</svg>
