<?xml version="1.0" encoding="utf-8" ?>
<svg xmlns="http://www.w3.org/2000/svg" xmlns:xlink="http://www.w3.org/1999/xlink" width="20" height="20" viewBox="0 0 20 20">
	<defs>
		<clipPath id="clipPath0586646999">
			<path d="M0 0L20 0L20 20L0 20L0 0Z" fill-rule="nonzero" transform="matrix(1 0 0 1 0 0)"/>
		</clipPath>
	</defs>
	<g clip-path="url(#clipPath0586646999)">
		<defs>
			<clipPath id="clipPath0176413423">
				<path d="M0 0L20 0L20 20L0 20L0 0Z" fill-rule="nonzero" transform="matrix(1 0 0 1 -0 -0)"/>
			</clipPath>
		</defs>
		<g clip-path="url(#clipPath0176413423)">
			<path d="M0.833333 13.3333C0.833333 14.25 1.58333 15 2.5 15L9.16667 15C10.0833 15 10.8333 14.25 10.8333 13.3333L10.8333 3.33333L0.833333 3.33333L0.833333 13.3333ZM11.6667 0.833333L8.75 0.833333L7.91667 0L3.75 0L2.91667 0.833333L0 0.833333L0 2.5L11.6667 2.5L11.6667 0.833333Z" fill-rule="nonzero" transform="matrix(1 0 0 1 4.16667 2.5)" fill="rgb(186, 26, 26)"/>
		</g>
	</g>
</svg>
