<?xml version="1.0" encoding="utf-8" ?>
<svg xmlns="http://www.w3.org/2000/svg" xmlns:xlink="http://www.w3.org/1999/xlink" width="24" height="24" viewBox="0 0 24 24">
	<defs>
		<clipPath id="clipPath4597366623">
			<path d="M0 0L24 0L24 24L0 24L0 0Z" fill-rule="nonzero" transform="matrix(1 0 0 1 0 0)"/>
		</clipPath>
	</defs>
	<g clip-path="url(#clipPath4597366623)">
		<defs>
			<clipPath id="clipPath9627616584">
				<path d="M0 0L24 0L24 24L0 24L0 0Z" fill-rule="nonzero" transform="matrix(1 0 0 1 -0 -0)"/>
			</clipPath>
		</defs>
		<g clip-path="url(#clipPath9627616584)">
			<path d="M10.8759 8.76874C12.2679 7.9481 13.2097 6.43941 13.2097 4.71081C13.2097 2.11318 11.095 0 8.49595 0C5.89671 0 3.78222 2.11338 3.78222 4.71081C3.78222 6.43848 4.72096 7.95129 6.11601 8.76874C2.65559 9.31115 0 12.3124 0 15.9196L0 17.6291C0 17.832 0.164834 17.9998 0.370872 17.9998C0.576909 17.9998 0.741743 17.835 0.741743 17.6291L0.741743 15.9196C0.741743 12.8138 2.93381 10.2082 5.85454 9.5705C5.79323 9.8638 5.77213 10.2334 5.79022 10.6784C4.60121 10.8663 3.6906 11.8918 3.6906 13.1313L3.6906 15.2477C3.6906 15.4506 3.85543 15.6183 4.06147 15.6183L5.07559 15.6183C5.13188 15.7519 5.26354 15.8474 5.41731 15.8474C5.62034 15.8474 5.78818 15.6826 5.78818 15.4767L5.78818 15.0217C5.78818 14.8188 5.62335 14.6511 5.41731 14.6511C5.26253 14.6511 5.13186 14.7465 5.07559 14.8801L4.43234 14.8801L4.43234 13.1343C4.43234 12.1731 5.21731 11.3886 6.18219 11.3886C7.14706 11.3886 7.92902 12.1731 7.92902 13.1343L7.92902 14.8801L7.28577 14.8801C7.22948 14.7465 7.09782 14.6511 6.94405 14.6511C6.74102 14.6511 6.57318 14.8158 6.57318 15.0217L6.57318 15.4767C6.57318 15.6796 6.73801 15.8474 6.94405 15.8474C7.09883 15.8474 7.2295 15.7519 7.28577 15.6183L8.29989 15.6183C8.50291 15.6183 8.67076 15.4536 8.67076 15.2477L8.67076 13.1313C8.67076 11.8787 7.73905 10.8452 6.53497 10.6734C6.5018 9.85778 6.62241 9.52129 6.68372 9.44697C6.86865 9.4319 7.05961 9.42086 7.24957 9.42086L9.75523 9.42086C10.0306 9.42086 10.301 9.43894 10.5683 9.47208C11.2267 9.89899 11.4769 11.5061 11.3171 14.2492C10.7664 14.4039 10.3603 14.9051 10.3603 15.5038C10.3603 16.226 10.9472 16.8126 11.6699 16.8126C12.3926 16.8126 12.9795 16.226 12.9795 15.5038C12.9795 14.9172 12.5905 14.426 12.0589 14.2593C12.1614 12.5286 12.1513 10.7848 11.6548 9.70019C14.3184 10.5158 16.2582 12.9918 16.2582 15.9158L16.2582 17.6254C16.2582 17.8283 16.423 17.996 16.629 17.996C16.8351 17.996 16.9999 17.8313 16.9999 17.6254L16.9999 15.9158C16.9999 12.3079 14.3446 9.30754 10.8839 8.76498L10.8759 8.76874ZM12.2317 15.5056C12.2317 15.819 11.9774 16.0761 11.6608 16.0761C11.3442 16.0761 11.0899 15.822 11.0899 15.5056C11.0899 15.1891 11.3442 14.935 11.6608 14.935C11.9774 14.935 12.2317 15.1891 12.2317 15.5056ZM4.52278 4.70875C4.52278 2.52005 6.30579 0.738249 8.49574 0.738249C10.6858 0.738249 12.4687 2.52015 12.4687 4.70875C12.4687 6.89745 10.6857 8.67926 8.49574 8.67926C6.30569 8.67926 4.52278 6.89735 4.52278 4.70875Z" fill-rule="nonzero" transform="matrix(1 0 0 1 4 2)" fill="rgb(0, 0, 0)"/>
			<path d="M11.5197 8.63637Q12.5168 8.8765 13.4221 9.38595Q14.5674 10.0304 15.4288 11.0274Q16.296 12.031 16.7646 13.2638Q17.2499 14.5405 17.2499 15.9158L17.2499 17.6254Q17.2499 17.8834 17.0685 18.0647Q16.8871 18.246 16.629 18.246Q16.3711 18.246 16.1891 18.0631Q16.0082 17.8812 16.0082 17.6254L16.0082 15.9158Q16.0082 14.8791 15.6768 13.9064Q15.3564 12.9659 14.7556 12.1677Q14.1613 11.3783 13.3537 10.8086Q12.7498 10.3826 12.0722 10.1119Q12.2692 10.7809 12.3309 11.7211Q12.3945 12.6888 12.3188 14.091Q12.6755 14.2519 12.9181 14.5735Q13.2295 14.9862 13.2295 15.5038Q13.2295 16.149 12.7724 16.6059Q12.3154 17.0626 11.6699 17.0626Q11.0244 17.0626 10.5674 16.6059Q10.1103 16.149 10.1103 15.5038Q10.1103 14.9746 10.4347 14.5567Q10.6949 14.2216 11.0769 14.0673Q11.1783 12.154 11.0025 11.0307Q10.8414 10.0008 10.4755 9.71278Q10.1097 9.67086 9.75523 9.67086L7.24957 9.67086Q7.07173 9.67086 6.85088 9.68532Q6.83401 9.74498 6.82028 9.82466Q6.77537 10.0852 6.77949 10.4633Q7.64291 10.6499 8.24221 11.3321Q8.92076 12.1044 8.92076 13.1313L8.92076 15.2477Q8.92076 15.5056 8.73768 15.6876Q8.55578 15.8683 8.29989 15.8683L7.42498 15.8683Q7.3692 15.9369 7.29339 15.989Q7.13565 16.0974 6.94405 16.0974Q6.68612 16.0974 6.50413 15.9145Q6.32318 15.7326 6.32318 15.4767L6.32318 15.0217Q6.32318 14.7638 6.50626 14.5818Q6.68816 14.4011 6.94405 14.4011Q7.13493 14.4011 7.2928 14.5093Q7.36892 14.5614 7.42485 14.6301L7.67902 14.6301L7.67902 13.1343Q7.67902 12.5164 7.2406 12.0777Q6.80173 11.6386 6.18219 11.6386Q5.56219 11.6386 5.12205 12.0779Q4.68234 12.5168 4.68234 13.1343L4.68234 14.6301L4.93638 14.6301Q4.99216 14.5615 5.06798 14.5094Q5.22571 14.4011 5.41731 14.4011Q5.67524 14.4011 5.85723 14.584Q6.03818 14.7658 6.03818 15.0217L6.03818 15.4767Q6.03818 15.7346 5.8551 15.9166Q5.6732 16.0974 5.41731 16.0974Q5.22643 16.0974 5.06856 15.9892Q4.99244 15.937 4.93651 15.8683L4.06147 15.8683Q3.80354 15.8683 3.62156 15.6854Q3.4406 15.5036 3.4406 15.2477L3.4406 13.1313Q3.4406 12.1152 4.10549 11.3469Q4.68917 10.6724 5.53459 10.4739Q5.53055 10.1628 5.55423 9.90273Q4.70937 10.1392 3.95532 10.6072Q3.06224 11.1616 2.39659 11.9775Q1.72543 12.8003 1.36485 13.7924Q0.991743 14.8189 0.991743 15.9196L0.991743 17.6291Q0.991743 17.8872 0.810293 18.0685Q0.628909 18.2498 0.370872 18.2498Q0.112942 18.2498 -0.0690452 18.0669Q-0.25 17.885 -0.25 17.6291L-0.25 15.9196Q-0.25 14.5445 0.235322 13.2679Q0.70401 12.0351 1.57118 11.0314Q2.4327 10.0343 3.5779 9.38976Q4.48143 8.88123 5.47629 8.64106Q4.70968 8.05762 4.21041 7.20774Q3.53222 6.05327 3.53222 4.71081Q3.53222 3.70327 3.92306 2.78138Q4.30033 1.89145 4.98765 1.20454Q5.67496 0.517636 6.5654 0.140589Q7.48782 -0.25 8.49595 -0.25Q9.50402 -0.25 10.4264 0.140558Q11.3169 0.517587 12.0042 1.20446Q12.6915 1.89136 13.0688 2.78129Q13.4597 3.70321 13.4597 4.71081Q13.4597 6.05242 12.7803 7.20705Q12.2828 8.05242 11.5197 8.63637ZM10.8786 8.7988L10.8452 9.01196Q12.0828 9.20599 13.1769 9.82169Q14.2461 10.4234 15.0505 11.3543Q15.86 12.2911 16.2973 13.4415Q16.7499 14.6323 16.7499 15.9158L16.7499 17.6254Q16.7499 17.6762 16.715 17.7111Q16.6801 17.746 16.629 17.746Q16.5789 17.746 16.5436 17.7104Q16.5082 17.6749 16.5082 17.6254L16.5082 15.9158Q16.5082 14.7963 16.1501 13.7452Q15.804 12.729 15.1551 11.867Q14.5136 11.0149 13.6419 10.4Q12.7582 9.77659 11.728 9.46115L11.1958 9.29819L11.4275 9.80425Q11.7502 10.5093 11.832 11.7539Q11.8977 12.7529 11.8093 14.2445L11.7978 14.4394L11.9841 14.4978Q12.3123 14.6008 12.519 14.8747Q12.7295 15.1537 12.7295 15.5038Q12.7295 15.9419 12.419 16.2522Q12.1084 16.5626 11.6699 16.5626Q11.2314 16.5626 10.9208 16.2522Q10.6103 15.9419 10.6103 15.5038Q10.6103 15.1459 10.8297 14.8633Q11.0456 14.5852 11.3847 14.4899L11.5564 14.4417L11.5667 14.2638Q11.6882 12.1783 11.4965 10.9534Q11.2915 9.64305 10.7044 9.26233L10.5991 9.22398Q10.1706 9.17086 9.75523 9.17086L7.24957 9.17086Q6.99409 9.17086 6.66342 9.1978L6.49088 9.28788Q6.24075 9.59106 6.28517 10.6836L6.29363 10.8915L6.49966 10.9209Q7.31798 11.0376 7.86658 11.6621Q8.42076 12.2928 8.42076 13.1313L8.42076 15.2477Q8.42076 15.2976 8.38523 15.3329Q8.34958 15.3683 8.29989 15.3683L7.1198 15.3683L7.05537 15.5213Q7.02334 15.5974 6.94405 15.5974Q6.89396 15.5974 6.85857 15.5618Q6.82318 15.5262 6.82318 15.4767L6.82318 15.0217Q6.82318 14.9718 6.8587 14.9365Q6.89436 14.9011 6.94405 14.9011Q7.02333 14.9011 7.05538 14.9771L7.11981 15.1301L8.17902 15.1301L8.17902 13.1343Q8.17902 12.3093 7.59426 11.7242Q7.00892 11.1386 6.18219 11.1386Q5.35534 11.1386 4.76882 11.724Q4.18234 12.3095 4.18234 13.1343L4.18234 15.1301L5.24156 15.1301L5.30599 14.9771Q5.33802 14.9011 5.41731 14.9011Q5.4674 14.9011 5.50279 14.9366Q5.53818 14.9722 5.53818 15.0217L5.53818 15.4767Q5.53818 15.5266 5.50266 15.5619Q5.467 15.5974 5.41731 15.5974Q5.33803 15.5974 5.30598 15.5213L5.24155 15.3683L4.06147 15.3683Q4.01138 15.3683 3.97599 15.3328Q3.9406 15.2972 3.9406 15.2477L3.9406 13.1313Q3.9406 12.3015 4.48357 11.6741Q5.02103 11.053 5.82923 10.9254L6.04905 10.8906L6.04001 10.6683Q6.01403 10.0293 6.09925 9.62166L6.17821 9.24394L5.80121 9.32626Q4.67481 9.5722 3.69164 10.1824Q2.7276 10.7808 2.00915 11.6615Q1.28444 12.5499 0.894928 13.6216Q0.491743 14.7309 0.491743 15.9196L0.491743 17.6291Q0.491743 17.68 0.45685 17.7148Q0.421893 17.7498 0.370872 17.7498Q0.320782 17.7498 0.285389 17.7142Q0.25 17.6786 0.25 17.6291L0.25 15.9196Q0.25 14.6363 0.702688 13.4456Q1.14003 12.2952 1.94952 11.3583Q2.75399 10.4272 3.82314 9.82549Q4.91726 9.20969 6.15472 9.01572L6.84686 8.90723L6.2424 8.55304Q5.23322 7.9617 4.64153 6.95448Q4.03222 5.91727 4.03222 4.71081Q4.03222 3.80488 4.3834 2.97654Q4.72266 2.17627 5.3411 1.5582Q5.95956 0.940104 6.76036 0.601013Q7.58931 0.25 8.49595 0.25Q9.40253 0.25 10.2315 0.600985Q11.0323 0.940062 11.6507 1.55813Q12.2692 2.17619 12.6085 2.97645Q12.9597 3.80483 12.9597 4.71081Q12.9597 5.91623 12.3493 6.95348Q11.7579 7.95856 10.7489 8.55338L10.8786 8.7988ZM4.27278 4.70875Q4.27278 3.85177 4.60544 3.06739Q4.92651 2.31034 5.51131 1.7259Q6.09609 1.14149 6.85358 0.820652Q7.63836 0.488248 8.49574 0.488248Q9.35316 0.488249 10.138 0.820668Q10.8954 1.14152 11.4802 1.72595Q12.065 2.31039 12.3861 3.06744Q12.7187 3.85181 12.7187 4.70875Q12.7187 5.56573 12.3861 6.35011Q12.065 7.10717 11.4802 7.6916Q10.8954 8.27601 10.1379 8.59685Q9.35313 8.92926 8.49574 8.92926Q7.63832 8.92925 6.85353 8.59684Q6.09605 8.27598 5.51127 7.69156Q4.92648 7.10712 4.60542 6.35006Q4.27278 5.5657 4.27278 4.70875ZM4.77278 4.70875Q4.77278 5.46406 5.06574 6.15485Q5.34879 6.82228 5.86472 7.3379Q6.38067 7.85354 7.04855 8.13644Q7.73985 8.42926 8.49574 8.42926Q9.25161 8.42925 9.9429 8.13645Q10.6108 7.85356 11.1267 7.33793Q11.6427 6.82232 11.9257 6.15489Q12.2187 5.46409 12.2187 4.70875Q12.2187 3.95345 11.9257 3.26265Q11.6427 2.59523 11.1268 2.07961Q10.6108 1.56397 9.94294 1.28107Q9.25163 0.988249 8.49574 0.988248Q7.73988 0.988248 7.04859 1.28106Q6.38071 1.56394 5.86475 2.07957Q5.34881 2.59518 5.06575 3.26261Q4.77278 3.95342 4.77278 4.70875ZM12.4817 15.5056Q12.4817 15.8445 12.2421 16.0849Q12.0015 16.3261 11.6608 16.3261Q11.3199 16.3261 11.0799 16.0863Q10.8399 15.8465 10.8399 15.5056Q10.8399 15.1646 11.0799 14.9248Q11.3199 14.685 11.6608 14.685Q12.0018 14.685 12.2417 14.9248Q12.4817 15.1646 12.4817 15.5056ZM11.9817 15.5056Q11.9817 15.3718 11.8883 15.2785Q11.7948 15.185 11.6608 15.185Q11.5269 15.185 11.4334 15.2785Q11.3399 15.3718 11.3399 15.5056Q11.3399 15.6393 11.4334 15.7327Q11.5269 15.8261 11.6608 15.8261Q11.794 15.8261 11.888 15.7318Q11.9817 15.6378 11.9817 15.5056Z" fill-rule="evenodd" transform="matrix(1 0 0 1 4 2)" fill="rgb(1, 32, 71)"/>
		</g>
	</g>
</svg>
