<?xml version="1.0" encoding="utf-8" ?>
<svg xmlns="http://www.w3.org/2000/svg" xmlns:xlink="http://www.w3.org/1999/xlink" width="20" height="20" viewBox="0 0 20 20">
	<defs>
		<clipPath id="clipPath4116102936">
			<path d="M0 0L20 0L20 20L0 20L0 0Z" fill-rule="nonzero" transform="matrix(1 0 0 1 0 0)"/>
		</clipPath>
	</defs>
	<g clip-path="url(#clipPath4116102936)">
		<defs>
			<clipPath id="clipPath5587300331">
				<path d="M0 0L20 0L20 20L0 20L0 0Z" fill-rule="nonzero" transform="matrix(1 0 0 1 -0 -0)"/>
			</clipPath>
		</defs>
		<g clip-path="url(#clipPath5587300331)">
			<path d="M16.5046 6.70125L15.8333 6.70125L15.8333 6.66667L8.33333 6.66667L8.33333 10L13.0429 10C12.3558 11.9404 10.5096 13.3333 8.33333 13.3333C5.57208 13.3333 3.33333 11.0946 3.33333 8.33333C3.33333 5.57208 5.57208 3.33333 8.33333 3.33333C9.60792 3.33333 10.7675 3.81417 11.6504 4.59958L14.0075 2.2425C12.5192 0.855417 10.5283 0 8.33333 0C3.73125 0 0 3.73125 0 8.33333C0 12.9354 3.73125 16.6667 8.33333 16.6667C12.9354 16.6667 16.6667 12.9354 16.6667 8.33333C16.6667 7.77458 16.6092 7.22917 16.5046 6.70125Z" fill-rule="nonzero" transform="matrix(1 0 0 1 1.66667 1.66667)" fill="rgb(255, 193, 7)"/>
			<path d="M0 4.45458L2.73792 6.4625C3.47875 4.62833 5.27292 3.33333 7.3725 3.33333C8.64708 3.33333 9.80667 3.81417 10.6896 4.59958L13.0467 2.2425C11.5583 0.855417 9.5675 0 7.3725 0C4.17167 0 1.39583 1.80708 0 4.45458Z" fill-rule="nonzero" transform="matrix(1 0 0 1 2.6275 1.66667)" fill="rgb(255, 61, 0)"/>
			<path d="M7.41875 6.64417C9.57125 6.64417 11.5271 5.82042 13.0058 4.48083L10.4267 2.29833C9.59 2.93208 8.55 3.31083 7.41875 3.31083C5.25125 3.31083 3.41083 1.92875 2.7175 0L0 2.09375C1.37917 4.7925 4.18 6.64417 7.41875 6.64417Z" fill-rule="nonzero" transform="matrix(1 0 0 1 2.58125 11.6892)" fill="rgb(76, 175, 80)"/>
			<path d="M8.17125 0.0345834L7.5 0.0345834L7.5 0L0 0L0 3.33333L4.70958 3.33333C4.37958 4.26542 3.78 5.06917 3.00667 5.65458L5.58708 7.83625C5.40458 8.00208 8.33333 5.83333 8.33333 1.66667C8.33333 1.10792 8.27583 0.5625 8.17125 0.0345834Z" fill-rule="nonzero" transform="matrix(1 0 0 1 10 8.33333)" fill="rgb(25, 118, 210)"/>
		</g>
	</g>
</svg>
