<?xml version="1.0" encoding="utf-8" ?>
<svg xmlns="http://www.w3.org/2000/svg" xmlns:xlink="http://www.w3.org/1999/xlink" width="286" height="32" viewBox="0 0 286 32">
	<defs>
		<clipPath id="clipPath5163006288">
			<path d="M0 0L32 0L32 32L0 32L0 0Z" fill-rule="nonzero" transform="matrix(1 0 0 1 0 0)"/>
		</clipPath>
	</defs>
	<g clip-path="url(#clipPath5163006288)">
		<defs>
			<clipPath id="clipPath2215898883">
				<path d="M0 0L32 0L32 32L0 32L0 0Z" fill-rule="nonzero" transform="matrix(1 0 0 1 -0 -0)"/>
			</clipPath>
		</defs>
		<g clip-path="url(#clipPath2215898883)">
			<path d="M-1 3Q-1 1.34315 0.171573 0.171573Q1.34315 -1 3 -1L6 -1Q7.65685 -1 8.82843 0.171573Q10 1.34315 10 3L10 6Q10 7.65686 8.82843 8.82843Q7.65685 10 6 10L3 10Q1.34315 10 0.171573 8.82843Q-1 7.65685 -1 6L-1 3ZM12 3Q12 1.34315 13.1716 0.171573Q14.3431 -1 16 -1L19 -1Q20.6569 -1 21.8284 0.171574Q23 1.34314 23 3L23 6Q23 7.65686 21.8284 8.82843Q20.6569 10 19 10L16 10Q14.3431 10 13.1716 8.82843Q12 7.65685 12 6L12 3ZM1 3L1 6Q1 6.82843 1.58579 7.41421Q2.17157 8 3 8L6 8Q6.82843 8 7.41421 7.41422Q8 6.82843 8 6L8 3Q8 2.17157 7.41421 1.58579Q6.82843 1 6 1L3 1Q2.17157 1 1.58579 1.58579Q1 2.17157 1 3ZM14 3L14 6Q14 6.82843 14.5858 7.41421Q15.1716 8 16 8L19 8Q19.8284 8 20.4142 7.41421Q21 6.82843 21 6L21 3Q21 2.17157 20.4142 1.58579Q19.8284 1 19 1L16 1Q15.1716 1 14.5858 1.58579Q14 2.17157 14 3ZM-1 16Q-1 14.3431 0.171573 13.1716Q1.34314 12 3 12L6 12Q7.65685 12 8.82843 13.1716Q10 14.3431 10 16L10 19Q10 20.6569 8.82843 21.8284Q7.65686 23 6 23L3 23Q1.34314 23 0.171571 21.8284Q-1 20.6569 -1 19L-1 16ZM12 16Q12 14.3431 13.1716 13.1716Q14.3431 12 16 12L19 12Q20.6569 12 21.8284 13.1716Q23 14.3431 23 16L23 19Q23 20.6569 21.8284 21.8284Q20.6569 23 19 23L16 23Q14.3431 23 13.1716 21.8284Q12 20.6569 12 19L12 16ZM1 16L1 19Q1 19.8284 1.58579 20.4142Q2.17157 21 3 21L6 21Q6.82843 21 7.41421 20.4142Q8 19.8284 8 19L8 16Q8 15.1716 7.41421 14.5858Q6.82843 14 6 14L3 14Q2.17157 14 1.58579 14.5858Q1 15.1716 1 16ZM14 16L14 19Q14 19.8284 14.5858 20.4142Q15.1716 21 16 21L19 21Q19.8284 21 20.4142 20.4142Q21 19.8284 21 19L21 16Q21 15.1716 20.4142 14.5858Q19.8284 14 19 14L16 14Q15.1716 14 14.5858 14.5858Q14 15.1716 14 16Z" fill-rule="evenodd" transform="matrix(1 0 0 1 5 5)" fill="rgb(35, 25, 23)"/>
		</g>
	</g>
	<defs>
		<clipPath id="clipPath2209923905">
			<path d="M0 0L32 0L32 25.6L0 25.6L0 0Z" fill-rule="nonzero" transform="matrix(1 0 0 1 40 2.38419e-07)"/>
		</clipPath>
	</defs>
	<g clip-path="url(#clipPath2209923905)">
		<defs>
			<clipPath id="clipPath3427624898">
				<path d="M0 0L32 0L32 25.6L0 25.6L0 0Z" fill-rule="nonzero" transform="matrix(1 0 0 1 40 2.38419e-07)"/>
			</clipPath>
		</defs>
		<g clip-path="url(#clipPath3427624898)">
			<path d="M5.28599 3.51381L5.28599 5.16381L8.14099 5.16381C8.08283 5.42955 7.962 5.67559 7.77852 5.90195C7.59505 6.1283 7.36354 6.31692 7.08399 6.46781C6.60699 6.72981 5.99799 6.87901 5.28399 6.87901C3.90399 6.87901 2.73749 6.12261 2.31899 5.11021C2.2095 4.8439 2.15475 4.57056 2.15475 4.29021C2.15475 4.00986 2.2095 3.73653 2.31899 3.47021C2.73749 2.45181 3.90399 1.69541 5.28399 1.69541C5.66179 1.68978 6.02629 1.74273 6.3775 1.85426C6.7287 1.96578 7.03937 2.12723 7.30949 2.33861L8.82349 1.11381C8.34672 0.751424 7.80235 0.473907 7.19038 0.281259C6.5784 0.0886099 5.94361 -0.00507253 5.28599 0.000211487C4.28248 0.00329173 3.35549 0.217895 2.505 0.64402C1.65452 1.07015 1.00851 1.64368 0.566992 2.36461C0.188997 2.97016 0 3.61136 0 4.28821C0 4.96507 0.188997 5.60627 0.566992 6.21181L0.566992 6.21781C1.00865 6.93835 1.65478 7.51132 2.50539 7.93671C3.35599 8.36211 4.28286 8.57581 5.28599 8.57781C6.70949 8.57781 7.91349 8.19661 8.78599 7.54141C9.78599 6.79701 10.3565 5.69541 10.3565 4.38501C10.3568 4.2391 10.3496 4.09342 10.335 3.94798C10.3204 3.80254 10.2984 3.65781 10.269 3.51381L5.28599 3.51381ZM24.7565 3.35381C24.25 2.97861 23.56 2.78821 22.687 2.78821C21.564 2.78821 20.72 3.12181 20.162 3.78261L21.2045 4.31301C21.5862 3.85968 22.1072 3.63301 22.7675 3.63301C22.9777 3.63342 23.1809 3.66393 23.3769 3.72454C23.573 3.78515 23.749 3.87184 23.905 3.98461C24.0588 4.09142 24.1779 4.21893 24.2625 4.36714C24.347 4.51534 24.3894 4.6709 24.3895 4.83381L24.3895 5.05421C23.9345 4.85141 23.362 4.74421 22.6575 4.74421C21.8355 4.74421 21.175 4.89941 20.683 5.21501C20.191 5.53061 19.942 5.94741 19.942 6.47741C19.9342 6.71727 19.9914 6.94678 20.1135 7.16594C20.2356 7.38509 20.4108 7.57252 20.639 7.72821C21.1015 8.06181 21.689 8.22861 22.3785 8.22861C23.193 8.22861 23.839 7.93661 24.3285 7.35301L24.3785 7.35301L24.3785 8.06181L25.509 8.06181L25.509 4.91381C25.5125 4.25181 25.263 3.72741 24.7565 3.35381ZM23.795 6.92581C23.6199 7.06836 23.4171 7.17833 23.1868 7.25574C22.9564 7.33314 22.7163 7.37196 22.4665 7.37221C22.3002 7.37443 22.1384 7.35407 21.981 7.31114C21.8236 7.2682 21.6799 7.20523 21.55 7.12221C21.427 7.04849 21.3313 6.9566 21.2629 6.84652C21.1945 6.73644 21.1607 6.61994 21.1615 6.49701C21.1615 6.21701 21.3225 5.98461 21.6385 5.80021C21.9545 5.61581 22.365 5.52021 22.842 5.52021C23.5 5.51381 24.015 5.63381 24.382 5.87141C24.382 6.27661 24.184 6.62781 23.795 6.92581ZM19.1125 1.24581C18.8444 1.03142 18.5346 0.867628 18.1829 0.754434C17.8313 0.64124 17.466 0.587699 17.087 0.593811L13.9535 0.593811L13.9535 8.06341L15.135 8.06341L15.135 5.03781L17.085 5.03781C17.885 5.03781 18.56 4.82341 19.1105 4.40061C19.1545 4.36501 19.1985 4.32901 19.243 4.29341C19.7441 3.85588 19.982 3.34057 19.9566 2.74748C19.9312 2.15439 19.6499 1.6533 19.1125 1.24421L19.1125 1.24581ZM18.2835 3.73501C18.1328 3.86366 17.9557 3.96176 17.7522 4.02929C17.5486 4.09683 17.3367 4.1278 17.1165 4.12221L15.135 4.12221L15.135 1.51381L17.1165 1.51381C17.3279 1.5132 17.5315 1.54487 17.7272 1.60882C17.923 1.67277 18.0961 1.76417 18.2465 1.88301C18.5647 2.13655 18.7274 2.44295 18.7346 2.8022C18.7418 3.16146 18.5914 3.47186 18.2835 3.73341L18.2835 3.73501ZM30.7155 2.95381L28.8885 6.62181L28.866 6.62181L26.995 2.95381L25.7105 2.95381L28.3 7.73581L26.8325 10.3086L28.05 10.3086L32 2.95381L30.7155 2.95381Z" fill-rule="nonzero" transform="matrix(1 0 0 1 40 7.64619)" fill="rgb(0, 0, 0)"/>
		</g>
	</g>
</svg>
