<?xml version="1.0" encoding="utf-8" ?>
<svg xmlns="http://www.w3.org/2000/svg" xmlns:xlink="http://www.w3.org/1999/xlink" width="24" height="24" viewBox="0 0 24 24">
	<defs>
		<clipPath id="clipPath9257635680">
			<path d="M0 0L24 0L24 24L0 24L0 0Z" fill-rule="nonzero" transform="matrix(1 0 0 1 0 0)"/>
		</clipPath>
	</defs>
	<g clip-path="url(#clipPath9257635680)">
		<defs>
			<clipPath id="clipPath7362247233">
				<path d="M0 0L24 0L24 24L0 24L0 0Z" fill-rule="nonzero" transform="matrix(1 0 0 1 -0 -0)"/>
			</clipPath>
		</defs>
		<g clip-path="url(#clipPath7362247233)">
			<path d="M10 18.35L8.55 17.03C3.4 12.36 0 9.28 0 5.5C0 2.42 2.42 0 5.5 0C7.24 0 8.91 0.81 10 2.09C11.09 0.81 12.76 0 14.5 0C17.58 0 20 2.42 20 5.5C20 9.28 16.6 12.36 11.45 17.04L10 18.35Z" fill-rule="nonzero" transform="matrix(1 0 0 1 2 3)" fill="rgb(1, 32, 71)"/>
		</g>
	</g>
</svg>
