<?xml version="1.0" encoding="utf-8" ?>
<svg xmlns="http://www.w3.org/2000/svg" xmlns:xlink="http://www.w3.org/1999/xlink" width="26.6743" height="26.6755" viewBox="0 0 26.6743 26.6755">
	<path d="M9.87417 11.3378L16.2342 0.324451C14.2418 -0.120482 12.2524 -0.107799 10.2659 0.362502C8.27944 0.832803 6.49552 1.71345 4.91417 3.00445L9.79417 11.4711L9.87417 11.3378ZM26.0608 9.33779C24.8342 5.44445 21.8608 2.32445 18.0608 0.884451L13.1808 9.33779L26.0608 9.33779ZM26.4075 10.6711L16.4208 10.6711L16.8075 11.3378L23.1542 22.3378C24.288 21.1138 25.1588 19.7249 25.7665 18.1711C26.3742 16.6173 26.6768 15.0062 26.6742 13.3378C26.6742 12.4178 26.5808 11.5378 26.4075 10.6711ZM8.7275 13.3378L3.5275 4.33778C2.07833 5.90726 1.06684 7.72085 0.493041 9.77855C-0.0807624 11.8362 -0.153719 13.9115 0.27417 16.0045L10.2608 16.0045L8.7275 13.3378ZM0.620836 17.3378C1.8475 21.2311 4.82084 24.3511 8.62084 25.7911L13.5008 17.3378L0.620836 17.3378ZM15.6475 17.3378L10.4475 26.3511C12.4398 26.7961 14.4292 26.7834 16.4157 26.3131C18.4022 25.8428 20.1862 24.9621 21.7675 23.6711L16.8875 15.2045L15.6475 17.3378Z" fill-rule="nonzero" transform="matrix(1 0 0 1 -1.5974e-05 0.000105858)" fill="rgb(70, 93, 124)"/>
</svg>
