<?xml version="1.0" encoding="utf-8" ?>
<svg xmlns="http://www.w3.org/2000/svg" xmlns:xlink="http://www.w3.org/1999/xlink" width="40" height="40" viewBox="0 0 40 40">
	<defs>
		<clipPath id="clipPath3907726742">
			<path d="M0 0L40 0L40 40L0 40L0 0Z" fill-rule="nonzero" transform="matrix(1 0 0 1 0 0)"/>
		</clipPath>
	</defs>
	<g clip-path="url(#clipPath3907726742)">
		<defs>
			<clipPath id="clipPath6302050849">
				<path d="M0 0L40 0L40 40L0 40L0 0Z" fill-rule="nonzero" transform="matrix(1 0 0 1 -0 -0)"/>
			</clipPath>
		</defs>
		<g clip-path="url(#clipPath6302050849)">
			<path d="M10.8333 18.3333L6.66667 18.3333L6.66667 13.3333L10.8333 13.3333L10.8333 9.16667L15.8333 9.16667L15.8333 13.3333L20 13.3333L20 18.3333L15.8333 18.3333L15.8333 22.5L10.8333 22.5L10.8333 18.3333ZM13.3333 0L0 5L0 15.15C0 23.5667 5.68333 31.4167 13.3333 33.3333C20.9833 31.4167 26.6667 23.5667 26.6667 15.15L26.6667 5L13.3333 0Z" fill-rule="nonzero" transform="matrix(1 0 0 1 6.66667 3.33333)" fill="rgb(14, 130, 253)"/>
		</g>
	</g>
</svg>
