<?xml version="1.0" encoding="utf-8" ?>
<svg xmlns="http://www.w3.org/2000/svg" xmlns:xlink="http://www.w3.org/1999/xlink" width="24" height="24" viewBox="0 0 24 24">
	<defs>
		<clipPath id="clipPath0969015781">
			<path d="M0 0L24 0L24 24L0 24L0 0Z" fill-rule="nonzero" transform="matrix(1 0 0 1 0 0)"/>
		</clipPath>
	</defs>
	<g clip-path="url(#clipPath0969015781)">
		<defs>
			<clipPath id="clipPath8036500485">
				<path d="M0 0L24 0L24 24L0 24L0 0Z" fill-rule="nonzero" transform="matrix(1 0 0 1 -0 -0)"/>
			</clipPath>
		</defs>
		<g clip-path="url(#clipPath8036500485)">
			<defs>
				<clipPath id="clipPath4421767200">
					<path d="M0 0L20 0L20 20L0 20L0 0Z" fill-rule="nonzero" transform="matrix(1 0 0 1 2 2)"/>
				</clipPath>
			</defs>
			<g clip-path="url(#clipPath4421767200)">
				<path d="M12.7296 1.9147C12.7261 1.39731 12.3648 0.933527 11.8513 0.787154C10.0238 0.264665 8.18133 0 6.37502 0C4.56872 0 2.71549 0.267214 0.877449 0.794801C0.360377 0.94287 0 1.41005 0 1.92999L0 4.84111C0 8.3267 1.81333 11.545 4.85203 13.4488L5.70379 13.9823C6.11198 14.2376 6.6388 14.2376 7.04698 13.9823L7.89874 13.4488C10.9365 11.5443 12.7508 8.32669 12.7508 4.84024L12.7296 1.9147ZM8.95063 7.15244L7.34094 7.15244L7.34094 8.69952C7.34094 9.21182 6.90887 9.62793 6.37495 9.62793C5.84192 9.62793 5.40897 9.21267 5.40897 8.69952L5.40897 7.15244L3.79927 7.15244C3.26624 7.15244 2.83329 6.73718 2.83329 6.22404C2.83329 5.71174 3.26536 5.29563 3.79927 5.29563L5.40897 5.29563L5.40897 3.74855C5.40897 3.23626 5.84104 2.82014 6.37495 2.82014C6.90798 2.82014 7.34094 3.23541 7.34094 3.74855L7.34094 5.29563L8.95063 5.29563C9.48366 5.29563 9.91662 5.71089 9.91662 6.22404C9.91662 6.73633 9.48455 7.15244 8.95063 7.15244Z" fill-rule="nonzero" transform="matrix(1 0 0 1 5.12596 4.93653)" fill="rgb(1, 32, 71)"/>
				<path d="M15.3311 1.16732C10.7987 -0.389106 6.20255 -0.389106 1.6699 1.16732C0.67116 1.51026 0 2.4157 0 3.42075L0 7.01352C0 11.0437 2.09667 14.765 5.61 16.9666L7.33922 18.0508C7.69162 18.272 8.09624 18.3826 8.5 18.3826C8.90376 18.3826 9.30838 18.272 9.66078 18.0508L11.39 16.9666C14.9033 14.7652 17 11.0437 17 7.01352L17 3.42075C17 2.41575 16.3289 1.51032 15.3311 1.16732ZM10.4108 15.9556L9.55908 16.4891C9.23766 16.6908 8.86933 16.7912 8.501 16.7921C8.13266 16.7921 7.76433 16.6917 7.44292 16.49L6.59115 15.9556C3.35231 13.9252 1.41771 10.4941 1.41771 6.7778L1.41771 3.86669C1.41771 3.04805 1.98614 2.31281 2.80074 2.0788C4.70526 1.53248 6.62302 1.25507 8.50095 1.25507C10.3789 1.25507 12.2852 1.52908 14.1792 2.0703C14.9884 2.30177 15.5586 3.03191 15.564 3.84627L15.5843 6.77438C15.5843 10.4939 13.6506 13.9251 10.4108 15.9556Z" fill-rule="nonzero" transform="matrix(1 0 0 1 3 3)" fill="rgb(1, 32, 71)"/>
			</g>
		</g>
	</g>
</svg>
