<?xml version="1.0" encoding="utf-8" ?>
<svg xmlns="http://www.w3.org/2000/svg" xmlns:xlink="http://www.w3.org/1999/xlink" width="20" height="20" viewBox="0 0 20 20">
	<defs>
		<clipPath id="clipPath2211310955">
			<path d="M0 0L20 0L20 20L0 20L0 0Z" fill-rule="nonzero" transform="matrix(1 0 0 1 0 0)"/>
		</clipPath>
	</defs>
	<g clip-path="url(#clipPath2211310955)">
		<defs>
			<clipPath id="clipPath6130001698">
				<path d="M0 0L20 0L20 20L0 20L0 0Z" fill-rule="nonzero" transform="matrix(1 0 0 1 -0 -0)"/>
			</clipPath>
		</defs>
		<g clip-path="url(#clipPath6130001698)">
			<path d="M15 0L1.66667 0C0.741667 0 0.00833333 0.741667 0.00833333 1.66667L0 11.6667C0 12.5917 0.741667 13.3333 1.66667 13.3333L15 13.3333C15.925 13.3333 16.6667 12.5917 16.6667 11.6667L16.6667 1.66667C16.6667 0.741667 15.925 0 15 0ZM15 11.6667L1.66667 11.6667L1.66667 6.66667L15 6.66667L15 11.6667ZM15 3.33333L1.66667 3.33333L1.66667 1.66667L15 1.66667L15 3.33333Z" fill-rule="nonzero" transform="matrix(1 0 0 1 1.66667 3.33333)" fill="rgb(230, 232, 238)"/>
		</g>
	</g>
</svg>
