<?xml version="1.0" encoding="utf-8" ?>
<svg xmlns="http://www.w3.org/2000/svg" xmlns:xlink="http://www.w3.org/1999/xlink" width="16" height="16" viewBox="0 0 16 16">
	<defs>
		<clipPath id="clipPath3411884039">
			<path d="M0 0L16 0L16 16L0 16L0 0Z" fill-rule="nonzero" transform="matrix(1 0 0 1 -0 -0)"/>
		</clipPath>
	</defs>
	<g clip-path="url(#clipPath3411884039)">
		<path d="M5.33333 10.6667C6.06667 10.6667 6.66667 10.0667 6.66667 9.33333C6.66667 8.6 6.06667 8 5.33333 8C4.6 8 4 8.6 4 9.33333C4 10.0667 4.6 10.6667 5.33333 10.6667ZM9.33333 4.66667L8.66667 4.66667L8.66667 3.33333C8.66667 1.49333 7.17333 0 5.33333 0C3.49333 0 2 1.49333 2 3.33333L2 4.66667L1.33333 4.66667C0.6 4.66667 0 5.26667 0 6L0 12.6667C0 13.4 0.6 14 1.33333 14L9.33333 14C10.0667 14 10.6667 13.4 10.6667 12.6667L10.6667 6C10.6667 5.26667 10.0667 4.66667 9.33333 4.66667ZM3.26667 3.33333C3.26667 2.19333 4.19333 1.26667 5.33333 1.26667C6.47333 1.26667 7.4 2.19333 7.4 3.33333L7.4 4.66667L3.26667 4.66667L3.26667 3.33333ZM9.33333 12.6667L1.33333 12.6667L1.33333 6L9.33333 6L9.33333 12.6667Z" fill-rule="nonzero" transform="matrix(1 0 0 1 2.66667 0.666667)" fill="rgb(70, 93, 124)"/>
	</g>
</svg>
