<?xml version="1.0" encoding="utf-8" ?>
<svg xmlns="http://www.w3.org/2000/svg" xmlns:xlink="http://www.w3.org/1999/xlink" width="20" height="20" viewBox="0 0 20 20">
	<defs>
		<clipPath id="clipPath0689609806">
			<path d="M0 0L20 0L20 20L0 20L0 0Z" fill-rule="nonzero" transform="matrix(1 0 0 1 0 0)"/>
		</clipPath>
	</defs>
	<g clip-path="url(#clipPath0689609806)">
		<defs>
			<clipPath id="clipPath3307333970">
				<path d="M0 0L20 0L20 20L0 20L0 0Z" fill-rule="nonzero" transform="matrix(1 0 0 1 -0 -0)"/>
			</clipPath>
		</defs>
		<g clip-path="url(#clipPath3307333970)">
			<path d="M11.6667 5.83333L10.8333 5.83333L10.8333 4.16667C10.8333 1.86667 8.96667 0 6.66667 0C4.36667 0 2.5 1.86667 2.5 4.16667L2.5 5.83333L1.66667 5.83333C0.75 5.83333 0 6.58333 0 7.5L0 15.8333C0 16.75 0.75 17.5 1.66667 17.5L11.6667 17.5C12.5833 17.5 13.3333 16.75 13.3333 15.8333L13.3333 7.5C13.3333 6.58333 12.5833 5.83333 11.6667 5.83333ZM6.66667 13.3333C5.75 13.3333 5 12.5833 5 11.6667C5 10.75 5.75 10 6.66667 10C7.58333 10 8.33333 10.75 8.33333 11.6667C8.33333 12.5833 7.58333 13.3333 6.66667 13.3333ZM9.25 5.83333L4.08333 5.83333L4.08333 4.16667C4.08333 2.74167 5.24167 1.58333 6.66667 1.58333C8.09167 1.58333 9.25 2.74167 9.25 4.16667L9.25 5.83333Z" fill-rule="nonzero" transform="matrix(1 0 0 1 3.33333 0.833333)" fill="rgb(230, 232, 238)"/>
		</g>
	</g>
</svg>
