<?xml version="1.0" encoding="utf-8" ?>
<svg xmlns="http://www.w3.org/2000/svg" xmlns:xlink="http://www.w3.org/1999/xlink" width="48" height="48" viewBox="0 0 48 48">
	<path d="M24 0C10.7452 0 0 10.7452 0 24L0 24.036C0 37.2908 10.7092 48 23.964 48L24 48C37.2548 48 48 37.2908 48 24.036L48 24C48 10.7452 37.2908 0 24.036 0L24 0Z" fill-rule="nonzero" transform="matrix(1 0 0 1 0 0)" fill="rgb(14, 130, 253)"/>
	<defs>
		<clipPath id="clipPath2791315535">
			<path d="M0 0L24 0L24 24L0 24L0 0Z" fill-rule="nonzero" transform="matrix(1 0 0 1 12 12)"/>
		</clipPath>
	</defs>
	<g clip-path="url(#clipPath2791315535)">
		<defs>
			<clipPath id="clipPath5468671058">
				<path d="M0 0L24 0L24 24L0 24L0 0Z" fill-rule="nonzero" transform="matrix(1 0 0 1 12 12)"/>
			</clipPath>
		</defs>
		<g clip-path="url(#clipPath5468671058)">
			<path d="M8 8C10.21 8 12 6.21 12 4C12 1.79 10.21 0 8 0C5.79 0 4 1.79 4 4C4 6.21 5.79 8 8 8ZM8 10C5.33 10 0 11.34 0 14L0 16L16 16L16 14C16 11.34 10.67 10 8 10Z" fill-rule="nonzero" transform="matrix(1 0 0 1 16 16)" fill="rgb(255, 255, 255)"/>
		</g>
	</g>
</svg>
