<?xml version="1.0" encoding="utf-8" ?>
<svg xmlns="http://www.w3.org/2000/svg" xmlns:xlink="http://www.w3.org/1999/xlink" width="24" height="24" viewBox="0 0 24 24">
	<defs>
		<clipPath id="clipPath7915162413">
			<path d="M0 0L24 0L24 24L0 24L0 0Z" fill-rule="nonzero" transform="matrix(1 0 0 1 -0 -0)"/>
		</clipPath>
	</defs>
	<g clip-path="url(#clipPath7915162413)">
		<path d="M10 0L2 0C0.9 0 0.0100002 0.9 0.0100002 2L0 18C0 19.1 0.89 20 1.99 20L14 20C15.1 20 16 19.1 16 18L16 6L10 0ZM12 16L4 16L4 14L12 14L12 16ZM12 12L4 12L4 10L12 10L12 12ZM9 7L9 1.5L14.5 7L9 7Z" fill-rule="nonzero" transform="matrix(1 0 0 1 4 2)" fill="rgb(246, 250, 255)"/>
	</g>
</svg>
