<?xml version="1.0" encoding="utf-8" ?>
<svg xmlns="http://www.w3.org/2000/svg" xmlns:xlink="http://www.w3.org/1999/xlink" width="24" height="24" viewBox="0 0 24 24">
	<defs>
		<clipPath id="clipPath3943560842">
			<path d="M0 0L24 0L24 24L0 24L0 0Z" fill-rule="nonzero" transform="matrix(1 0 0 1 -0 -0)"/>
		</clipPath>
	</defs>
	<g clip-path="url(#clipPath3943560842)">
		<path d="M8 11L8 3C8 1.34 6.66 0 5 0C3.34 0 2 1.34 2 3L2 11C0.79 11.91 0 13.37 0 15C0 17.76 2.24 20 5 20C7.76 20 10 17.76 10 15C10 13.37 9.21 11.91 8 11ZM4 9L4 3C4 2.45 4.45 2 5 2C5.55 2 6 2.45 6 3L6 4L5 4L5 5L6 5L6 7L5 7L5 8L6 8L6 9L4 9Z" fill-rule="nonzero" transform="matrix(1 0 0 1 7 2)" fill="rgb(1, 32, 71)"/>
	</g>
</svg>
