<?xml version="1.0" encoding="utf-8" ?>
<svg xmlns="http://www.w3.org/2000/svg" xmlns:xlink="http://www.w3.org/1999/xlink" width="16" height="16" viewBox="0 0 16 16">
	<path d="M-0 8C0 3.58172 3.58172 -0 8 -0C12.4183 0 16 3.58172 16 8C16 12.4183 12.4183 16 8 16C3.58172 16 -0 12.4183 -0 8L0 8ZM8 1C4.13401 1 1 4.13401 1 8C1 11.866 4.13401 15 8 15C11.866 15 15 11.866 15 8C15 4.13401 11.866 1 8 1L8 1Z" fill-rule="nonzero" transform="matrix(1 0 0 1 0 0)" fill="rgb(70, 93, 124)"/>
	<defs>
		<clipPath id="clipPath4156120561">
			<path d="M0 0L12 0L12 12L0 12L0 0Z" fill-rule="nonzero" transform="matrix(1 0 0 1 2 2)"/>
		</clipPath>
	</defs>
	<g clip-path="url(#clipPath4156120561)">
		<defs>
			<clipPath id="clipPath7160820148">
				<path d="M0 0L12 0L12 12L0 12L0 0Z" fill-rule="nonzero" transform="matrix(1 0 0 1 2 2)"/>
			</clipPath>
		</defs>
		<g clip-path="url(#clipPath7160820148)">
			<path d="M2.795 5.29L0.71 3.205L0 3.91L2.795 6.705L8.795 0.705L8.09 0L2.795 5.29Z" fill-rule="nonzero" transform="matrix(1 0 0 1 3.705 4.795)" fill="rgb(70, 93, 124)"/>
		</g>
	</g>
</svg>
